<?xml version="1.0" encoding="iso-8859-1"?>
<!-- Generator: Adobe Illustrator 19.0.0, SVG Export Plug-In . SVG Version: 6.00 Build 0)  -->
<svg version="1.1" id="Capa_1" xmlns="http://www.w3.org/2000/svg" xmlns:xlink="http://www.w3.org/1999/xlink" x="0px" y="0px"
	 viewBox="0 0 512 512" style="enable-background:new 0 0 512 512;" xml:space="preserve">
<path style="fill:#A8D32A;" d="M422,151v30c-32.999,0-60,26.999-60,60h-30c0-18.3,5.7-35.4,15-49.801
	C363.199,167.199,390.801,151,422,151z"/>
<path style="fill:#93BF00;" d="M422,151v30c-32.999,0-60,26.999-60,60h-15v-49.801C363.199,167.199,390.801,151,422,151z"/>
<path style="fill:#FF7816;" d="M450.5,297.1c-5.099,29.399-29.101,94.9-66.601,94.9H310.1c-37.5,0-61.501-65.501-66.601-94.9
	c-3.3-18.9-0.899-38.101,6.901-53.401c8.399-16.8,22.798-27.9,39-30.899c16.8-2.701,34.199,2.999,47.999,16.199
	c2.701,2.401,6,3.6,9.6,3.6s6.899-1.199,9.6-3.6c13.801-13.2,31.199-19.2,47.999-16.199c16.201,2.999,30.601,14.099,39,30.899
	C451.399,258.999,453.8,278.2,450.5,297.1z"/>
<path style="fill:#FF4B00;" d="M450.5,297.1c-5.099,29.399-29.101,94.9-66.601,94.9H347V232.599c3.6,0,6.899-1.199,9.6-3.6
	c13.801-13.2,31.199-19.2,47.999-16.199c16.201,2.999,30.601,14.099,39,30.899C451.399,258.999,453.8,278.2,450.5,297.1z"/>
<rect x="75" y="362" style="fill:#53433F;" width="362" height="150"/>
<rect x="257" y="362" style="fill:#3E322E;" width="180" height="150"/>
<rect x="151" y="76" style="fill:#68544F;" width="31" height="60"/>
<rect x="166" y="76" style="fill:#53433F;" width="16" height="60"/>
<rect x="121" y="15" style="fill:#D3D3D8;" width="91" height="76"/>
<rect x="166" y="15" style="fill:#BABAC0;" width="46" height="76"/>
<rect x="90" y="392" style="fill:#D3D3D8;" width="332" height="90"/>
<rect x="257" y="392" style="fill:#BABAC0;" width="165" height="90"/>
<path style="fill:#68544F;" d="M75,362c-41.4,0-75,33.6-75,75s33.6,75,75,75s75-33.6,75-75S116.4,362,75,362z"/>
<path style="fill:#53433F;" d="M150,437c0,41.4-33.6,75-75,75V362C116.4,362,150,395.6,150,437z"/>
<path style="fill:#E7E7E7;" d="M75,392c-24.901,0-45,20.099-45,45c0,24.899,20.099,45,45,45s45-20.101,45-45
	C120,412.099,99.901,392,75,392z"/>
<path style="fill:#D3D3D8;" d="M120,437c0,24.899-20.099,45-45,45v-90C99.901,392,120,412.099,120,437z"/>
<rect x="60" y="422" style="fill:#5A5A5A;" width="30" height="30"/>
<rect x="75" y="422" style="fill:#444444;" width="15" height="30"/>
<path style="fill:#68544F;" d="M257,362c-41.4,0-75,33.6-75,75s33.6,75,75,75s75-33.6,75-75S298.4,362,257,362z"/>
<path style="fill:#53433F;" d="M332,437c0,41.4-33.6,75-75,75V362C298.4,362,332,395.6,332,437z"/>
<path style="fill:#E7E7E7;" d="M257,392c-24.901,0-45,20.099-45,45c0,24.899,20.099,45,45,45s45-20.101,45-45
	C302,412.099,281.901,392,257,392z"/>
<path style="fill:#D3D3D8;" d="M302,437c0,24.899-20.099,45-45,45v-90C281.901,392,302,412.099,302,437z"/>
<rect x="242" y="422" style="fill:#5A5A5A;" width="30" height="30"/>
<rect x="257" y="422" style="fill:#444444;" width="15" height="30"/>
<path style="fill:#68544F;" d="M437,362c-41.4,0-75,33.6-75,75s33.6,75,75,75s75-33.6,75-75S478.4,362,437,362z"/>
<path style="fill:#53433F;" d="M512,437c0,41.4-33.6,75-75,75V362C478.4,362,512,395.6,512,437z"/>
<path style="fill:#E7E7E7;" d="M437,392c-24.901,0-45,20.099-45,45c0,24.899,20.099,45,45,45s45-20.101,45-45
	C482,412.099,461.901,392,437,392z"/>
<path style="fill:#D3D3D8;" d="M482,437c0,24.899-20.099,45-45,45v-90C461.901,392,482,412.099,482,437z"/>
<rect x="422" y="422" style="fill:#5A5A5A;" width="30" height="30"/>
<rect x="437" y="422" style="fill:#444444;" width="15" height="30"/>
<rect x="61" style="fill:#68544F;" width="211" height="30"/>
<rect x="166" style="fill:#53433F;" width="106" height="30"/>
<path style="fill:#D3D3D8;" d="M227,181c0,15.899-6.301,31.199-17.701,42.299l-20.999-21c5.7-5.7,8.699-13.2,8.699-21.299
	c0-8.101-2.999-15.601-8.699-21.301S173.8,151.3,166,151.3s-15.601,2.699-21.301,8.399S136,172.899,136,181
	c0,8.099,2.999,15.599,8.699,21.299l-20.999,21c-11.399-11.1-17.7-26.4-17.7-42.299c0-15.901,6.301-31.201,17.701-42.301
	c11.1-11.4,26.699-17.1,42.299-17.1s32.199,5.7,43.299,17.1C220.699,149.799,227,165.099,227,181z"/>
<path style="fill:#BABAC0;" d="M227,181c0,15.899-6.301,31.199-17.701,42.299l-20.999-21c5.7-5.7,8.699-13.2,8.699-21.299
	c0-8.101-2.999-15.601-8.699-21.301S173.8,151.3,166,151.3v-29.702c15.601,0,32.199,5.7,43.299,17.1
	C220.699,149.799,227,165.099,227,181z"/>
<g>
</g>
<g>
</g>
<g>
</g>
<g>
</g>
<g>
</g>
<g>
</g>
<g>
</g>
<g>
</g>
<g>
</g>
<g>
</g>
<g>
</g>
<g>
</g>
<g>
</g>
<g>
</g>
<g>
</g>
</svg>
