<svg height="512" viewBox="0 0 512 512" width="512" xmlns="http://www.w3.org/2000/svg"><g id="Fertilizer"><g id="Flat"><path d="m480 464c0 19.08-20.05 31.22-37.44 24.37-148.16 32.12-239.3 29-373.12 0-17.64 6.94-37.44-5.34-37.44-24.37 0-4.41 13.41-21.79 15.39-25.51-2.25-10.43-7.39-43.37-7.39-126.49 0-31.57 16.66-122.13 22.32-152h387.36c5.66 29.87 22.32 120.43 22.32 152 0 83.12-5.14 116.06-7.39 126.49 2.05 3.72 15.39 21.09 15.39 25.51z" fill="#81c784"/><path d="m464.61 438.49c2.25-10.43 7.39-43.37 7.39-126.49 0-31.57-16.66-122.13-22.32-152h-51.538c-19.3 161.385-134.688 293.247-287.32 336.734 112.474 20.9 199.342 20.339 331.738-8.364 17.39 6.85 37.44-5.29 37.44-24.37 0-4.42-13.34-21.79-15.39-25.51z" fill="#66bb6a"/><path d="m292 448h-72a108 108 0 0 1 0-216h72a108 108 0 0 1 0 216z" fill="#e2dbd5"/><path d="m218.146 447.976c.617.011 1.234.024 1.854.024h72a107.944 107.944 0 0 0 78.369-182.234 401.474 401.474 0 0 1 -152.223 182.21z" fill="#d9d1cc"/><path d="m427.782 136h-343.563a3.1 3.1 0 0 1 -2.5-4.947l.035-.043c29.456-36.88 125.156-131.01 174.246-131.01 45.54 0 144.95 94.34 174.25 131.01l.035.043a3.1 3.1 0 0 1 -2.503 4.947z" fill="#f09b73"/><path d="m430.285 131.053-.035-.043c-19.494-24.4-70.022-74.317-115.073-105a184.187 184.187 0 0 1 -75.47 109.99h188.075a3.1 3.1 0 0 0 2.503-4.947z" fill="#e58b6c"/><path d="m456 208h-400a24 24 0 0 1 0-48h400a24 24 0 0 1 0 48z" fill="#66bb6a"/><path d="m248 320.343h16v39.657h-16z" fill="#49ad4d"/><path d="m255.259 352a48.054 48.054 0 0 0 -48 48h96a48.053 48.053 0 0 0 -48-48z" fill="#f09b73"/><path d="m329.44 273.881c-1.485-.273-36.636-6.519-58.931 5.434a41.62 41.62 0 0 0 -14.879 13.278 41.615 41.615 0 0 0 -14.88-13.278c-22.293-11.953-57.444-5.707-58.931-5.434a8.087 8.087 0 0 0 -5.911 11.024c.595 1.388 14.842 34.124 37.137 46.079 15.4 8.256 30.649 5.424 42.584-.728 11.007 5.742 28.576 8.241 42.585.728 22.3-11.955 36.542-44.691 37.138-46.079a8.1 8.1 0 0 0 -5.912-11.024z" fill="#81c784"/><path d="m329.44 273.881c-1.219-.224-25.105-4.462-45.956.627a80.016 80.016 0 0 1 -75.255 53.486 47.82 47.82 0 0 0 4.816 2.99c15.4 8.256 30.649 5.424 42.584-.728 11.007 5.742 28.576 8.241 42.585.728 22.3-11.955 36.542-44.691 37.138-46.079a8.1 8.1 0 0 0 -5.912-11.024z" fill="#66bb6a"/><path d="m234.9 400h68.359a48.055 48.055 0 0 0 -28.389-43.794 80.263 80.263 0 0 1 -39.97 43.794z" fill="#e58b6c"/><path d="m320 407.657h-128a7.83 7.83 0 1 1 0-15.657h128a7.83 7.83 0 1 1 0 15.657z" fill="#e08261"/><circle cx="216" cy="48" fill="#f2bba5" r="16"/><circle cx="240" cy="80" fill="#f2bba5" r="8"/><circle cx="80" cy="240" fill="#c8e6c9" r="16"/><circle cx="104" cy="272" fill="#c8e6c9" r="8"/><path d="m456 176h-400a24 24 0 0 1 0-48h400a24 24 0 0 1 0 48z" fill="#81c784"/><g fill="#e08261"><circle cx="216" cy="72" r="8"/><circle cx="240" cy="40" r="8"/><circle cx="256" cy="64" r="8"/><circle cx="280" cy="48" r="8"/><circle cx="296" cy="80" r="8"/><circle cx="328" cy="104" r="8"/><circle cx="272" cy="104" r="8"/><circle cx="232" cy="104" r="8"/><circle cx="184" cy="104" r="8"/></g></g></g></svg>