<svg id="Flat" height="512" viewBox="0 0 512 512" width="512" xmlns="http://www.w3.org/2000/svg"><path d="m376 56.006c.206-1.03-76.4-40.045-128 64 0 0 112 16 128-64z" fill="#b0bb74"/><path d="m136 183.38s-8-50.658-72-64c0 0-32 72 72 64z" fill="#b0bb74"/><path d="m376 152.006a8 8 0 0 1 -8-8v-96a8 8 0 1 1 16 0v96a8 8 0 0 1 -8 8z" fill="#818a55"/><path d="m488 336.006c0 80-80 96-112 96s-112-16-112-96 29.88-88.57 48-152c16-56 64-56 64-56s48 0 64 56c18.12 63.43 48 72 48 152z" fill="#fde575"/><path d="m136 232.006a8 8 0 0 1 -8-8v-64a8 8 0 1 1 16 0v64a8 8 0 0 1 -8 8z" fill="#818a55"/><path d="m248 272.006c0 96-64 168-112 128-48 40-112-32-112-128 0-112 112-64 112-64s112-48 112 64z" fill="#e74444"/><circle cx="264" cy="360.006" fill="#fc8d36" r="112"/><g fill="#ba621e"><circle cx="320" cy="400.006" r="8"/><circle cx="296" cy="424.006" r="8"/><circle cx="296" cy="376.006" r="8"/><circle cx="320" cy="352.006" r="8"/><path d="m288.006 336.008a8 8 0 0 1 -7.161-4.424c-.037-.071-6.107-11.578-16.845-11.578-10.755 0-16.787 11.462-16.845 11.578a8 8 0 1 1 -14.31-7.156c.417-.833 10.449-20.422 31.155-20.422s30.738 19.589 31.155 20.422a8 8 0 0 1 -7.149 11.58z"/><path d="m264 320.036a8.025 8.025 0 0 1 -8-8.017v-.013a22.064 22.064 0 0 0 -2.347-8.794c-2.612-4.916-6.951-7.206-13.653-7.206a8 8 0 0 1 0-16c11.136 0 18.907 4.306 24 10.2 5.093-5.9 12.864-10.2 24-10.2a8 8 0 0 1 0 16c-6.7 0-11.04 2.29-13.653 7.206a22.035 22.035 0 0 0 -2.347 8.848v.018a7.975 7.975 0 0 1 -8 7.958z"/></g></svg>