<svg id="Capa_1" enable-background="new 0 0 497 497" height="512" viewBox="0 0 497 497" width="512" xmlns="http://www.w3.org/2000/svg"><g><path d="m303.211 362.029c-3.691-22.93-6.659-41.972-6.659-43.921v-58.274h-96.105v58.274c0 1.949-3.578 20.991-8.029 43.921z" fill="#ffcdbe"/><path d="m419.943 391.296c-5.281-12.315-15.266-22.009-27.731-26.924l-87.711-34.586c-4.796-1.891-7.948-6.523-7.948-11.678v-31.47h-30v41.47c0 5.155 3.152 9.787 7.948 11.678l87.711 34.586c12.466 4.916 22.45 14.609 27.731 26.924 12.973 30.251 19.723 62.797 19.878 95.704h21.168c4.886 0 8.846-3.961 8.846-8.846.001-33.301-6.767-66.253-19.892-96.858z" fill="#ebab99"/><ellipse cx="347.319" cy="173.725" fill="#ffcdbe" rx="28.507" ry="28.507" transform="matrix(.707 -.707 .707 .707 -21.115 296.474)"/><path d="m419.943 391.296c-5.281-12.315-15.266-22.009-27.731-26.924l-87.711-34.586c-4.176-1.647-7.103-5.371-7.791-9.709l-6.314 7.956c-21.414 26.983-62.379 26.983-83.792 0l-6.313-7.956c-.688 4.338-3.615 8.063-7.791 9.709l-87.711 34.586c-12.313 4.855-22.304 14.335-27.544 26.489-13.247 30.727-20.08 63.835-20.08 97.293 0 4.886 3.961 8.846 8.846 8.846h65.198l118.249-10 116.372 10h65.159c4.886 0 8.846-3.961 8.846-8.846.001-33.3-6.767-66.253-19.892-96.858z" fill="#e3a76f"/><path d="m419.943 391.296c-5.281-12.315-15.266-22.009-27.731-26.924l-87.711-34.586c-4.176-1.647-7.103-5.371-7.791-9.709l-6.314 7.956c-4.076 5.135-8.862 9.287-14.084 12.468l85.9 33.872c12.466 4.916 22.45 14.609 27.731 26.924 12.973 30.251 19.723 62.797 19.878 95.704h21.168c4.886 0 8.846-3.961 8.846-8.846.001-33.302-6.767-66.254-19.892-96.859z" fill="#c48958"/><ellipse cx="148.953" cy="173.725" fill="#ffcdbe" rx="28.507" ry="28.507" transform="matrix(.652 -.759 .759 .652 -79.886 173.524)"/><path d="m155.601 134.146c-9.76 51.579-8.464 119.181 49.726 156.057 18.448 11.69 40.593 15.179 61.248 10.466 8.786-2.005 7.302-15.493 15.15-20.466 1.712-1.085 13.375 7.803 14.99 6.666 53.268-37.507 54.207-102.661 44.733-152.723z" fill="#ffcdbe"/><path d="m312.55 134.146c9.761 51.579 8.469 119.18-49.723 156.057-8.914 5.649-18.694 9.377-28.75 11.196 19.606 3.546 40.267-.182 57.648-11.196 58.192-36.876 59.484-104.478 49.723-156.057z" fill="#ebae9d"/><path d="m359.223 456.21-11.486-12.142c-6.832-7.222-10.639-16.787-10.639-26.728v-74.716l-28.31-11.163v75.028c0 12.198-9.889 22.087-22.087 22.087h-76.361c-12.198 0-22.087-9.889-22.087-22.087v-75.029l-28.31 11.163v74.716c0 9.942-3.807 19.506-10.639 26.728l-11.486 12.142c-4.243 4.486-6.608 10.426-6.608 16.602v24.189h64.231l53.086-10 53.034 10h64.271v-24.188c-.001-6.175-2.366-12.116-6.609-16.602z" fill="#a65d4e"/><path d="m151.962 116.814c3.622-45.219 16.675-85.448 22.312-101.12 2.053-5.708 5.71-10.473 10.414-13.545 12.728-8.313 31.945 10.333 46.545 8.083 11.481-1.769 23.105-1.769 34.586 0 14.6 2.25 33.817-16.396 46.545-8.083 4.704 3.072 8.361 7.837 10.414 13.545 5.637 15.672 18.69 55.901 22.312 101.12z" fill="#f2bb88"/><path d="m322.778 15.694c-2.053-5.708-5.71-10.473-10.414-13.545-7.267-4.746-16.648-.705-26.078 3.218 2.818 2.814 5.055 6.331 6.492 10.327 5.637 15.672 18.69 55.901 22.312 101.12h30c-3.622-45.219-16.675-85.448-22.312-101.12z" fill="#e3a76f"/><path d="m346.302 147.199h-195.604c-19.128 0-34.634-15.506-34.634-34.634v-7.985c0-5.028 4.076-9.103 9.103-9.103h246.666c5.027 0 9.103 4.076 9.103 9.103v7.985c0 19.128-15.506 34.634-34.634 34.634z" fill="#f2d1a5"/><path d="m371.833 95.477h-30c5.027 0 9.103 4.076 9.103 9.103v7.985c0 19.128-15.506 34.634-34.634 34.634h30c19.128 0 34.634-15.506 34.634-34.634v-7.985c0-5.028-4.076-9.103-9.103-9.103z" fill="#f2bb88"/><path d="m301.56 497h-106.12v-20.91c0-5.966 4.836-10.802 10.802-10.802h84.516c5.966 0 10.802 4.836 10.802 10.802z" fill="#f2d1a5"/><path d="m308.788 353.305 28.31 11.164v-21.83l-28.31-11.163z" fill="#915041"/></g></svg>