<svg xmlns="http://www.w3.org/2000/svg" height="512pt" version="1.1" viewBox="0 0 512 512" width="512pt">
<g id="surface1">
<path d="M 241 90 L 271 90 L 271 421 L 241 421 Z M 241 90 " style=" stroke:none;fill-rule:nonzero;fill:rgb(49.411765%,36.470588%,25.098039%);fill-opacity:1;" />
<path d="M 256 90 L 271 90 L 271 421 L 256 421 Z M 256 90 " style=" stroke:none;fill-rule:nonzero;fill:rgb(40.784314%,30.196078%,20.392157%);fill-opacity:1;" />
<path d="M 254.242188 367.824219 C 222.660156 341.460938 211 311.296875 200.703125 284.695312 C 186.699219 248.457031 172.210938 211 109.648438 211 L 76 211 C 67.710938 211 61 217.710938 61 226 C 61 234.289062 67.710938 241 76 241 C 105.296875 241 111.421875 260.117188 119.300781 307.035156 C 126.199219 348.125 134.785156 399.261719 188.089844 415.800781 C 189.570312 416.253906 191.0625 416.472656 192.527344 416.472656 L 256.144531 388.949219 C 261.464844 382.59375 260.601562 373.128906 254.242188 367.824219 Z M 254.242188 367.824219 " style=" stroke:none;fill-rule:nonzero;fill:rgb(65.882353%,82.745098%,16.470588%);fill-opacity:1;" />
<path d="M 436 211 L 402.351562 211 C 339.789062 211 325.300781 248.457031 311.296875 284.683594 C 301.027344 311.238281 289.382812 341.328125 257.949219 367.664062 C 251.589844 372.980469 250.757812 382.445312 256.074219 388.789062 L 305.9375 405.824219 C 307.972656 412.179688 313.875 416.238281 320.21875 416.238281 C 321.726562 416.238281 323.28125 416.003906 324.804688 415.519531 C 377.316406 398.691406 385.859375 347.859375 392.714844 307.019531 C 400.578125 260.101562 406.703125 241 436 241 C 444.289062 241 451 234.289062 451 226 C 451 217.710938 444.289062 211 436 211 Z M 436 211 " style=" stroke:none;fill-rule:nonzero;fill:rgb(57.647059%,74.901961%,0%);fill-opacity:1;" />
<path d="M 512 46 C 512 54.285156 505.285156 61 497 61 C 488.714844 61 482 54.285156 482 46 C 482 37.714844 488.714844 31 497 31 C 505.285156 31 512 37.714844 512 46 Z M 512 46 " style=" stroke:none;fill-rule:nonzero;fill:rgb(77.647059%,88.627451%,90.588235%);fill-opacity:1;" />
<path d="M 512 106 C 512 114.285156 505.285156 121 497 121 C 488.714844 121 482 114.285156 482 106 C 482 97.714844 488.714844 91 497 91 C 505.285156 91 512 97.714844 512 106 Z M 512 106 " style=" stroke:none;fill-rule:nonzero;fill:rgb(77.647059%,88.627451%,90.588235%);fill-opacity:1;" />
<path d="M 451 76 C 451 84.285156 444.285156 91 436 91 C 427.714844 91 421 84.285156 421 76 C 421 67.714844 427.714844 61 436 61 C 444.285156 61 451 67.714844 451 76 Z M 451 76 " style=" stroke:none;fill-rule:nonzero;fill:rgb(77.647059%,88.627451%,90.588235%);fill-opacity:1;" />
<path d="M 451 136 C 451 144.285156 444.285156 151 436 151 C 427.714844 151 421 144.285156 421 136 C 421 127.714844 427.714844 121 436 121 C 444.285156 121 451 127.714844 451 136 Z M 451 136 " style=" stroke:none;fill-rule:nonzero;fill:rgb(77.647059%,88.627451%,90.588235%);fill-opacity:1;" />
<path d="M 391 106 C 391 114.285156 384.285156 121 376 121 C 367.714844 121 361 114.285156 361 106 C 361 97.714844 367.714844 91 376 91 C 384.285156 91 391 97.714844 391 106 Z M 391 106 " style=" stroke:none;fill-rule:nonzero;fill:rgb(77.647059%,88.627451%,90.588235%);fill-opacity:1;" />
<path d="M 512 166 C 512 174.285156 505.285156 181 497 181 C 488.714844 181 482 174.285156 482 166 C 482 157.714844 488.714844 151 497 151 C 505.285156 151 512 157.714844 512 166 Z M 512 166 " style=" stroke:none;fill-rule:nonzero;fill:rgb(77.647059%,88.627451%,90.588235%);fill-opacity:1;" />
<path d="M 30 46 C 30 54.285156 23.285156 61 15 61 C 6.714844 61 0 54.285156 0 46 C 0 37.714844 6.714844 31 15 31 C 23.285156 31 30 37.714844 30 46 Z M 30 46 " style=" stroke:none;fill-rule:nonzero;fill:rgb(87.058824%,92.54902%,94.509804%);fill-opacity:1;" />
<path d="M 30 106 C 30 114.285156 23.285156 121 15 121 C 6.714844 121 0 114.285156 0 106 C 0 97.714844 6.714844 91 15 91 C 23.285156 91 30 97.714844 30 106 Z M 30 106 " style=" stroke:none;fill-rule:nonzero;fill:rgb(87.058824%,92.54902%,94.509804%);fill-opacity:1;" />
<path d="M 91 76 C 91 84.285156 84.285156 91 76 91 C 67.714844 91 61 84.285156 61 76 C 61 67.714844 67.714844 61 76 61 C 84.285156 61 91 67.714844 91 76 Z M 91 76 " style=" stroke:none;fill-rule:nonzero;fill:rgb(87.058824%,92.54902%,94.509804%);fill-opacity:1;" />
<path d="M 91 136 C 91 144.285156 84.285156 151 76 151 C 67.714844 151 61 144.285156 61 136 C 61 127.714844 67.714844 121 76 121 C 84.285156 121 91 127.714844 91 136 Z M 91 136 " style=" stroke:none;fill-rule:nonzero;fill:rgb(87.058824%,92.54902%,94.509804%);fill-opacity:1;" />
<path d="M 151 106 C 151 114.285156 144.285156 121 136 121 C 127.714844 121 121 114.285156 121 106 C 121 97.714844 127.714844 91 136 91 C 144.285156 91 151 97.714844 151 106 Z M 151 106 " style=" stroke:none;fill-rule:nonzero;fill:rgb(87.058824%,92.54902%,94.509804%);fill-opacity:1;" />
<path d="M 30 166 C 30 174.285156 23.285156 181 15 181 C 6.714844 181 0 174.285156 0 166 C 0 157.714844 6.714844 151 15 151 C 23.285156 151 30 157.714844 30 166 Z M 30 166 " style=" stroke:none;fill-rule:nonzero;fill:rgb(87.058824%,92.54902%,94.509804%);fill-opacity:1;" />
<path d="M 286 0 L 226 0 C 217.597656 0 211 6.597656 211 15 L 211 75 C 211 83.398438 217.597656 90 226 90 L 286 90 C 294.402344 90 301 83.398438 301 75 L 301 15 C 301 6.597656 294.402344 0 286 0 Z M 286 0 " style=" stroke:none;fill-rule:nonzero;fill:rgb(77.647059%,88.627451%,90.588235%);fill-opacity:1;" />
<path d="M 502.699219 383.5 C 498.5 381.699219 494.597656 379.601562 491 377.199219 C 458.597656 355.601562 415.902344 355.601562 383.5 377.199219 C 361 391.902344 332.199219 391.902344 310 377.199219 C 293.5 366.398438 274.898438 361 256 361 C 238 361 219.402344 366.398438 203.5 377.199219 C 181 391.902344 152.199219 391.902344 130 377.199219 C 97.597656 355.601562 54.902344 355.601562 22.5 377.199219 C 19.800781 379 16.800781 379.898438 13.800781 380.199219 C 6 380.800781 0 387.398438 0 395.199219 L 0 497 C 0 505.402344 6.597656 512 15 512 L 497 512 C 505.402344 512 512 505.402344 512 497 L 512 397.300781 C 512 391.300781 508.398438 385.601562 502.699219 383.5 Z M 502.699219 383.5 " style=" stroke:none;fill-rule:nonzero;fill:rgb(49.411765%,36.470588%,25.098039%);fill-opacity:1;" />
<path d="M 512 397.300781 L 512 497 C 512 505.402344 505.402344 512 497 512 L 256 512 L 256 361 C 274.898438 361 293.5 366.398438 310 377.199219 C 332.199219 391.902344 361 391.902344 383.5 377.199219 C 415.902344 355.601562 458.597656 355.601562 491 377.199219 C 494.601562 379.601562 498.5 381.699219 502.699219 383.5 C 508.398438 385.601562 512 391.300781 512 397.300781 Z M 512 397.300781 " style=" stroke:none;fill-rule:nonzero;fill:rgb(40.784314%,30.196078%,20.392157%);fill-opacity:1;" />
<path d="M 106 452 L 76 452 C 67.710938 452 61 444.289062 61 436 C 61 427.710938 67.710938 421 76 421 L 106 421 C 114.289062 421 121 427.710938 121 436 C 121 444.289062 114.289062 452 106 452 Z M 106 452 " style=" stroke:none;fill-rule:nonzero;fill:rgb(36.078431%,26.666667%,18.431373%);fill-opacity:1;" />
<path d="M 436 452 L 406 452 C 397.710938 452 391 444.289062 391 436 C 391 427.710938 397.710938 421 406 421 L 436 421 C 444.289062 421 451 427.710938 451 436 C 451 444.289062 444.289062 452 436 452 Z M 436 452 " style=" stroke:none;fill-rule:nonzero;fill:rgb(29.803922%,21.960784%,15.686275%);fill-opacity:1;" />
<path d="M 286 436 C 286 444.402344 279.402344 452 271 452 L 241 452 C 232.597656 452 226 444.402344 226 436 C 226 427.597656 232.597656 421 241 421 L 271 421 C 279.402344 421 286 427.597656 286 436 Z M 286 436 " style=" stroke:none;fill-rule:nonzero;fill:rgb(36.078431%,26.666667%,18.431373%);fill-opacity:1;" />
<path d="M 286 436 C 286 444.402344 279.402344 452 271 452 L 256 452 L 256 421 L 271 421 C 279.402344 421 286 427.597656 286 436 Z M 286 436 " style=" stroke:none;fill-rule:nonzero;fill:rgb(29.803922%,21.960784%,15.686275%);fill-opacity:1;" />
<path d="M 301 15 L 301 75 C 301 83.398438 294.402344 90 286 90 L 256 90 L 256 0 L 286 0 C 294.402344 0 301 6.597656 301 15 Z M 301 15 " style=" stroke:none;fill-rule:nonzero;fill:rgb(65.882353%,82.745098%,84.705882%);fill-opacity:1;" />
<path d="M 316 60 L 196 60 C 187.597656 60 181 66.597656 181 75 L 181 105 C 181 113.398438 187.597656 120 196 120 L 316 120 C 324.402344 120 331 113.398438 331 105 L 331 75 C 331 66.597656 324.402344 60 316 60 Z M 316 60 " style=" stroke:none;fill-rule:nonzero;fill:rgb(87.058824%,92.54902%,94.509804%);fill-opacity:1;" />
<path d="M 331 75 L 331 105 C 331 113.398438 324.402344 120 316 120 L 256 120 L 256 60 L 316 60 C 324.402344 60 331 66.597656 331 75 Z M 331 75 " style=" stroke:none;fill-rule:nonzero;fill:rgb(77.647059%,88.627451%,90.588235%);fill-opacity:1;" />
</g>
</svg>