<svg id="Capa_1" enable-background="new 0 0 512 512" height="512" viewBox="0 0 512 512" width="512" xmlns="http://www.w3.org/2000/svg"><g><path d="m467 15h-91c-8.276 0-15-6.724-15-15l-15 30v30 30l15 30c0-8.276 6.724-15 15-15h91c24.814 0 45-20.186 45-45s-20.186-45-45-45z" fill="#4d6666"/><path d="m361 120c0-8.276 6.724-15 15-15h91c24.814 0 45-20.186 45-45h-166v30z" fill="#3a4d4d"/><path d="m241.542 15c-36.182 0-68.965 13.696-99.009 28.477-2.036 1.01-4.233 1.523-6.533 1.523h-30v15 15h30c2.3 0 4.497.513 6.548 1.523 30.029 14.781 62.812 28.477 98.994 28.477h104.458v-45-45z" fill="#f3f5f9"/><path d="m136 75c2.3 0 4.497.513 6.548 1.523 30.029 14.781 62.812 28.477 98.994 28.477h104.458v-45h-240v15z" fill="#e1e6f0"/><path d="m91 286h30v60h-30z" fill="#79cc52"/><path d="m106 286h15v60h-15z" fill="#59b348"/><path d="m211 211v15c0 41.4-33.6 75-75 75h-60c-41.4 0-76-33.6-76-75v-15h46c24.6 0 46.199 11.999 60 30.599 13.801-18.6 35.4-30.599 60-30.599z" fill="#a0e65c"/><path d="m211 211v15c0 41.4-33.6 75-75 75h-30v-59.401c13.801-18.6 35.4-30.599 60-30.599z" fill="#79cc52"/><path d="m331 286h30v60h-30z" fill="#79cc52"/><path d="m346 286h15v60h-15z" fill="#59b348"/><path d="m451 211v15c0 41.4-33.6 75-75 75h-60c-41.4 0-75-33.6-75-75v-15h45c24.6 0 46.199 11.999 60 30.599 13.801-18.6 35.4-30.599 60-30.599z" fill="#a0e65c"/><path d="m451 211v15c0 41.4-33.6 75-75 75h-30v-59.401c13.801-18.6 35.4-30.599 60-30.599z" fill="#79cc52"/><path d="m151 346v121c0 24.899-20.099 45-45 45s-45-20.101-45-45v-121z" fill="#f3f5f9"/><path d="m151 346v121c0 24.899-20.099 45-45 45v-166z" fill="#e1e6f0"/><path d="m121 391v76c0 8.399-6.599 15-15 15s-15-6.601-15-15v-76z" fill="#6cf"/><path d="m106 391h15v76c0 8.399-6.599 15-15 15z" fill="#59abff"/><path d="m46 331h120v30h-120z" fill="#e1e6f0"/><path d="m106 331h60v30h-60z" fill="#cfd7e6"/><path d="m118.349 96.475-12.349-17.871-12.349 17.871c-9.814 14.223-32.651 50.35-32.651 69.525 0 24.814 20.186 45 45 45s45-20.186 45-45c0-19.175-22.837-55.302-32.651-69.525z" fill="#6cf"/><path d="m151 166c0-19.175-22.837-55.302-32.651-69.525l-12.349-17.871v132.396c24.814 0 45-20.186 45-45z" fill="#59abff"/><path d="m391 346v121c0 24.899-20.099 45-45 45s-45-20.101-45-45v-121z" fill="#f3f5f9"/><path d="m391 346v121c0 24.899-20.099 45-45 45v-166z" fill="#e1e6f0"/><path d="m361 391v76c0 8.399-6.599 15-15 15s-15-6.601-15-15v-76z" fill="#6cf"/><path d="m346 391h15v76c0 8.399-6.599 15-15 15z" fill="#59abff"/><path d="m286 331h120v30h-120z" fill="#e1e6f0"/><path d="m346 331h60v30h-60z" fill="#cfd7e6"/><path d="m331 0v60 60h30v-60-60z" fill="#3a4d4d"/><path d="m331 60h30v60h-30z" fill="#213333"/><path d="m241.542 45c-21.812 0-43.022 6.431-63.252 15 20.229 8.569 41.44 15 63.252 15h59.458v-15-15z" fill="#6cf"/><path d="m301 75v-15h-122.71c20.229 8.569 41.44 15 63.252 15z" fill="#59abff"/></g></svg>