<svg height="512" viewBox="0 0 46 58" width="512" xmlns="http://www.w3.org/2000/svg"><g id="Page-1" fill="none" fill-rule="evenodd"><g id="045---Organic-Fertiliser" fill-rule="nonzero" transform="translate(-1)"><path id="Shape" d="m40 7c.0057206-1.49270427-.6589806-2.90912742-1.8107827-3.85862774-1.151802-.94950032-2.6690213-1.33176673-4.1332173-1.04137226-.8675088-1.22418057-2.2419861-1.99051431-3.7394113-2.0848923-1.4974253-.09437799-2.9572429.49331909-3.9715887 1.5988923-1.4578796-.81205764-3.2321204-.81205764-4.69 0-1.1463278-1.24666935-2.8473806-1.82576014-4.5162551-1.53747243-1.6688746.28828771-3.0770772 1.40448308-3.7387449 2.96347243-.134-.01-.263-.04-.4-.04-2.3763431-.00048501-4.42473142 1.67166873-4.9 4l15.9 2z" fill="#cb8252"/><path id="Shape" d="m46.89 54.05c-.3495048 1.6288189-1.4872744 2.976588-3.0343644 3.5944207s-3.3002729.4245698-4.6756356-.5154207c-1.7021709-1.157323-3.8631108-1.4079696-5.785-.671-3.0171428 1.0604432-6.1971789 1.5823821-9.395 1.542-3.1978211.0403821-6.3778572-.4815568-9.395-1.542-1.9218892-.7369696-4.0828291-.486323-5.785.671-2.06818578 1.4159154-4.86513725 1.0817654-6.54155948-.781516-1.67642222-1.8632813-1.71423642-4.6798686-.08844052-6.587484 1.00833153-1.1091299 1.80482552-2.3936883 2.35-3.79.98442248-2.8874252 1.47792569-5.9194278 1.46-8.97v-28c0-1.1045695.8954305-2 2-2h32c1.1045695 0 2 .8954305 2 2v28c-.0179257 3.0505722.4755775 6.0825748 1.46 8.97.5451745 1.3963117 1.3416685 2.6808701 2.35 3.79 1.0091245 1.1834271 1.4084984 2.7698287 1.08 4.29z" fill="#f3d55b"/><path id="Shape" d="m11.944 53c-.5093591-.0004745-.9369707-.3837316-.993-.89-.2166245-1.9561648-1.14911329-3.7630844-2.618-5.073-.27003273-.2372864-.39192725-.6012511-.31926964-.9533071.07265761-.3520559.32868598-.6380246.6705969-.7490175.34191091-.1109929.71708727-.0299291.98267274.2123246 1.8362473 1.6379545 3.0016978 3.8972617 3.272 6.343.0584247.5475087-.3367459 1.0392368-.884 1.1-.0367929.0053302-.0738469.0086684-.111.01z" fill="#f0c419"/><path id="Shape" d="m36.057 53c-.0374135-.0000051-.0748001-.0020079-.112-.006-.5472541-.0607632-.9424247-.5524913-.884-1.1.2715904-2.4453492 1.4368165-4.7042212 3.272-6.343.2655855-.2422537.6407618-.3233175.9826727-.2123246.341911.1109929.5979393.3969616.6705969.7490175.0726577.352056-.0492369.7160207-.3192696.9533071-1.4685066 1.3102102-2.4009151 3.1169743-2.618 5.073-.0578673.5043038-.4843876.8852483-.992.886z" fill="#f0c419"/><circle id="Oval" cx="24" cy="29" fill="#9fc9d3" r="13"/><path id="Shape" d="m24 37c-.5522847 0-1-.4477153-1-1 0-1.092-1.638-3.24-2.8-4.417l-.89-.9c-.3890846-.3923983-.3863983-1.0259154.006-1.415s1.0259154-.3863983 1.415.006l.891.9c.6644369.677083 1.2774693 1.4027609 1.834 2.171.399959-1.6977904.9847837-3.3466338 1.744-4.917l.542-1.068c.1569875-.3266798.4784497-.5428436.8402151-.5649935s.7071978.1531817.9028667.4582694.2109414.6921684.0399182 1.0117241l-.542 1.067c-1.1640617 2.3988023-1.8382007 5.0056091-1.983 7.668 0 .5522847-.4477153 1-1 1z" fill="#4c8056"/><g fill="#f29c1f"><path id="Shape" d="m25 12h-2c-.5522847 0-1-.4477153-1-1s.4477153-1 1-1h2c.5522847 0 1 .4477153 1 1s-.4477153 1-1 1z"/><path id="Shape" d="m19 12h-2c-.5522847 0-1-.4477153-1-1s.4477153-1 1-1h2c.5522847 0 1 .4477153 1 1s-.4477153 1-1 1z"/><path id="Shape" d="m13 12h-2c-.5522847 0-1-.4477153-1-1s.4477153-1 1-1h2c.5522847 0 1 .4477153 1 1s-.4477153 1-1 1z"/><path id="Shape" d="m37 12h-2c-.5522847 0-1-.4477153-1-1s.4477153-1 1-1h2c.5522847 0 1 .4477153 1 1s-.4477153 1-1 1z"/><path id="Shape" d="m31 12h-2c-.5522847 0-1-.4477153-1-1s.4477153-1 1-1h2c.5522847 0 1 .4477153 1 1s-.4477153 1-1 1z"/></g><path id="Shape" d="m20.789 30.96c-1.2903155.6010616-2.8240824.0528101-3.441-1.23-.65-1.23-.24-3.25.03-4.27.0429787-.1691413.156233-.3118319.3112011-.3920867s.3368581-.0904131.4997989-.0279133c.99.35 2.891 1.15 3.541 2.38.7118589 1.2381684.2917136 2.8187364-.941 3.54z" fill="#24ae5f"/><path id="Shape" d="m29.652 26.73c-.3678449.8607958-1.188213 1.44184-2.1222998 1.5031668-.9340869.0613268-1.8233816-.4074707-2.3006136-1.2127836-.4772321-.8053128-.4614172-1.8104824.0409134-2.6003832.65-1.23 2.551-2.03 3.541-2.38.1629408-.0624998.3448308-.0523415.4997989.0279133s.2682224.2229454.3112011.3920867c.27 1.02.678 3.04.03 4.27z" fill="#24ae5f"/><path id="Shape" d="m33.21 38.17c-2.4379447 2.4514799-5.7526415 3.8298504-9.21 3.8298504s-6.7720553-1.3783705-9.21-3.8298504c.8985119-.7563994 2.0354946-1.1708136 3.21-1.17.3561338.0009195.711266.0377728 1.06.11.7998417.1790454 1.6379179.0429475 2.34-.38 1.5970033-.9722249 3.6029967-.9722249 5.2 0 .7020821.4229475 1.5401583.5590454 2.34.38.348734-.0722272.7038662-.1090805 1.06-.11 1.1745054-.0008136 2.3114881.4136006 3.21 1.17z" fill="#f0c419"/></g></g></svg>