<svg height="512pt" viewBox="-57 0 512 512.00001" width="512pt" xmlns="http://www.w3.org/2000/svg"><path d="m361.980469 110.355469c-.355469-13.082031-8.445313-25.535157-24.648438-34.886719-36.574219-21.117188-100.464843-18.46875-142.699219 5.917969-23.402343 13.507812-35.191406 30.859375-34.875 47.238281l-.039062.003906v218.84375h.03125c.300781 13.132813 8.382812 25.636719 24.636719 35.019532 36.578125 21.121093 100.46875 18.46875 142.703125-5.914063 23.453125-13.539063 35.25-30.929687 34.882812-47.339844h.039063v-218.886719zm0 0" fill="#b6c5ce"/><path d="m327.089844 157.855469c-42.234375 24.386719-106.125 27.035156-142.703125 5.917969-36.574219-21.117188-31.988281-58.007813 10.246093-82.390626 42.234376-24.382812 106.125-27.035156 142.703126-5.914062 36.574218 21.117188 31.988281 58.003906-10.246094 82.386719zm0 0" fill="#d6e5e5"/><path d="m307.925781 22.988281c-.164062-6.113281-3.746093-11.949219-11.320312-16.324219-17.097657-9.871093-46.960938-8.632812-66.699219 2.765626-10.941406 6.3125-16.261719 14.40625-16.117188 22.0625l-.207031.015624v56.882813h.019531c.136719 6.140625 3.917969 11.984375 11.515626 16.371094 17.097656 9.871093 46.957031 8.636719 66.699218-2.761719 10.964844-6.332031 16.476563-14.457031 16.304688-22.128906h.019531v-56.898438zm0 0" fill="#ffb82b"/><path d="m291.816406 45.171875c-19.742187 11.398437-49.605468 12.636719-66.699218 2.765625-17.097657-9.867188-14.953126-27.109375 4.789062-38.507812 19.738281-11.398438 49.601562-12.636719 66.699219-2.765626 17.097656 9.871094 14.953125 27.113282-4.789063 38.507813zm0 0" fill="#ffe14d"/><path d="m202.285156 202.113281c-.355468-13.082031-8.445312-25.53125-24.644531-34.882812-36.578125-21.121094-100.46875-18.46875-142.699219 5.914062-23.40625 13.507813-35.195312 30.859375-34.878906 47.238281l-.0390625.003907v218.84375h.03125c.3007815 13.136719 8.3828125 25.636719 24.6406245 35.023437 36.578126 21.117188 100.464844 18.46875 142.699219-5.917968 23.453125-13.539063 35.25-30.929688 34.882813-47.339844h.042968v-218.886719zm0 0" fill="#b6c5ce"/><path d="m167.394531 249.617188c-42.234375 24.382812-106.125 27.03125-142.703125 5.914062-36.574218-21.117188-31.988281-58.003906 10.246094-82.390625 42.238281-24.382813 106.125-27.03125 142.703125-5.914063 36.578125 21.117188 31.988281 58.003907-10.246094 82.390626zm0 0" fill="#d6e5e5"/><path d="m148.230469 114.75c-.164063-6.117188-3.746094-11.953125-11.320313-16.328125-17.09375-9.871094-46.957031-8.628906-66.699218 2.769531-10.9375 6.3125-16.261719 14.40625-16.113282 22.058594l-.207031.019531v56.882813h.015625c.140625 6.140625 3.917969 11.984375 11.515625 16.371094 17.097656 9.867187 46.957031 8.636718 66.699219-2.765626 10.964844-6.328124 16.476562-14.457031 16.304687-22.128906h.019531v-56.894531zm0 0" fill="#2b5d99"/><path d="m132.121094 136.933594c-19.738282 11.398437-49.601563 12.636718-66.699219 2.765625-17.097656-9.871094-14.953125-27.113281 4.789063-38.507813 19.742187-11.398437 49.605468-12.636718 66.699218-2.765625 17.097656 9.867188 14.953125 27.109375-4.789062 38.507813zm0 0" fill="#2c92bf"/><path d="m184.042969 280.488281c-4.671875 4.203125-10.203125 8.21875-16.648438 11.941407-39.769531 22.960937-98.730469 26.644531-136.015625 9.363281v121.371093c37.285156 17.277344 96.246094 13.59375 136.015625-9.363281 6.445313-3.722656 11.976563-7.742187 16.648438-11.941406zm0 0" fill="#2b5d99"/><path d="m154.660156 331.105469c-22.078125-6.65625-47-1.703125-65.027344 15.210937-18.027343 16.910156-24.5625 41.464844-19.332031 63.921875 22.082031 6.652344 47 1.699219 65.027344-15.210937 18.03125-16.910156 24.566406-41.464844 19.332031-63.921875zm0 0" fill="#2c92bf"/><path d="m398.128906 225.605469c-.355468-13.082031-8.445312-25.535157-24.648437-34.886719-36.574219-21.117188-100.464844-18.46875-142.699219 5.917969-23.402344 13.507812-35.191406 30.859375-34.878906 47.238281l-.035156.003906v218.84375h.03125c.300781 13.132813 8.382812 25.636719 24.636718 35.019532 36.578125 21.121093 100.46875 18.46875 142.703125-5.914063 23.453125-13.542969 35.246094-30.929687 34.882813-47.339844h.039062v-218.886719zm0 0" fill="#b1cec8"/><path d="m363.238281 273.105469c-42.238281 24.386719-106.125 27.035156-142.703125 5.917969-36.578125-21.117188-31.988281-58.007813 10.246094-82.390626 42.234375-24.382812 106.125-27.035156 142.703125-5.914062 36.574219 21.117188 31.988281 58.003906-10.246094 82.386719zm0 0" fill="#d6e5e5"/><path d="m344.074219 138.238281c-.167969-6.113281-3.75-11.949219-11.320313-16.324219-17.097656-9.871093-46.960937-8.632812-66.699218 2.765626-10.941407 6.3125-16.265626 14.40625-16.117188 22.0625l-.207031.015624v56.882813h.015625c.140625 6.140625 3.917968 11.984375 11.519531 16.371094 17.09375 9.871093 46.957031 8.636719 66.699219-2.761719 10.960937-6.332031 16.476562-14.457031 16.304687-22.128906h.019531v-56.898438zm0 0" fill="#5b9617"/><path d="m327.964844 160.421875c-19.742188 11.398437-49.605469 12.636719-66.699219 2.765625-17.097656-9.867188-14.953125-27.109375 4.789063-38.507812 19.738281-11.398438 49.601562-12.636719 66.699218-2.765626 17.097656 9.871094 14.953125 27.113282-4.789062 38.507813zm0 0" fill="#a2bf26"/><path d="m379.886719 303.980469c-4.671875 4.199219-10.203125 8.21875-16.648438 11.9375-39.769531 22.960937-98.730469 26.644531-136.015625 9.367187v121.367188c37.285156 17.28125 96.246094 13.597656 136.015625-9.363282 6.445313-3.71875 11.976563-7.738281 16.648438-11.941406zm0 0" fill="#5b9617"/><path d="m350.503906 354.59375c-22.078125-6.652344-47-1.699219-65.027344 15.210938-18.027343 16.910156-24.5625 41.464843-19.332031 63.925781 22.078125 6.652343 47 1.699219 65.027344-15.214844 18.027344-16.910156 24.5625-41.464844 19.332031-63.921875zm0 0" fill="#a2bf26"/></svg>