<svg id="Layer_1" enable-background="new 0 0 497 497" height="512" viewBox="0 0 497 497" width="512" xmlns="http://www.w3.org/2000/svg"><g><g><g fill="#bed0e0"><path d="m277 437.991h-107.5c-9.697 0-9.697 15 0 15h107.5c9.697 0 9.697-15 0-15z"/><path d="m68.484 437.991c-18.846 0-36.938-5.736-52.321-16.589-7.923-5.59-16.571 6.667-8.646 12.257 17.927 12.647 39.009 19.332 60.968 19.332 9.697 0 9.697-15-.001-15z"/><path d="m131.5 437.991h-27.84c-9.697 0-9.697 15 0 15h27.84c9.697 0 9.697-15 0-15z"/><path d="m491.721 261.981c-14.937-11.13-32.576-18.134-51.011-20.256-9.63-1.121-11.35 13.792-1.715 14.901 15.811 1.82 30.943 7.831 43.763 17.383 7.557 5.63 16.877-6.13 8.963-12.028z"/></g><path d="m68.484 415.491c-37.762 0-68.484-30.721-68.484-68.482s30.722-68.482 68.484-68.482h360.031c37.763 0 68.484 30.721 68.484 68.482s-30.722 68.482-68.484 68.482z" fill="#e8f4ff"/><path d="m428.516 278.527h-40c37.763 0 68.484 30.721 68.484 68.482s-30.722 68.482-68.484 68.482h40c37.763 0 68.484-30.721 68.484-68.482s-30.722-68.482-68.484-68.482z" fill="#dceaf7"/><path d="m68.485 307.1h360.031v79.819h-360.031z" fill="#365dca"/><g><circle cx="68.485" cy="347.009" fill="#ffe645" r="39.91"/><path d="m68.485 307.1c-7.291 0-14.118 1.964-20 5.378 11.901 6.908 19.911 19.78 19.911 34.531s-8.009 27.623-19.911 34.531c5.882 3.414 12.709 5.378 20 5.378 22.042 0 39.911-17.868 39.911-39.909s-17.869-39.909-39.911-39.909z" fill="#f5d60c"/><path d="m68.484 358.345c-6.251 0-11.337-5.085-11.337-11.336s5.086-11.337 11.337-11.337 11.337 5.085 11.337 11.337c0 6.251-5.086 11.336-11.337 11.336z" fill="#365dca"/><circle cx="428.516" cy="347.009" fill="#ffe645" r="39.91"/><path d="m428.516 307.1c-7.291 0-14.118 1.964-20 5.378 11.901 6.908 19.911 19.78 19.911 34.531s-8.009 27.623-19.911 34.531c5.882 3.414 12.709 5.378 20 5.378 22.042 0 39.911-17.868 39.911-39.909s-17.869-39.909-39.911-39.909z" fill="#f5d60c"/><path d="m428.516 358.345c-6.251 0-11.337-5.085-11.337-11.336s5.086-11.337 11.337-11.337 11.337 5.085 11.337 11.337c-.001 6.251-5.087 11.336-11.337 11.336z" fill="#365dca"/></g></g><g><g><path d="m143.048 103.918v-30.696h-33.097v30.696c-10.743 0-19.452 8.709-19.452 19.452v139.88c0 8.437 6.84 15.276 15.276 15.276h41.447c8.437 0 15.276-6.84 15.276-15.276v-139.88c.002-10.743-8.707-19.452-19.45-19.452z" fill="#9ef"/><path d="m145.51 73.222h-38.02c-5.241 0-9.49-4.249-9.49-9.49v-10.248c0-5.233 4.242-9.475 9.475-9.475h38.051c5.233 0 9.475 4.242 9.475 9.475v10.248c-.001 5.241-4.25 9.49-9.491 9.49z" fill="#ffe645"/><path d="m90.5 151.342h36v77.333h-36z" fill="#fff6db"/></g><g><path d="m265.048 103.918v-30.696h-33.097v30.696c-10.743 0-19.452 8.709-19.452 19.452v139.88c0 8.437 6.84 15.276 15.276 15.276h41.447c8.437 0 15.276-6.84 15.276-15.276v-139.88c.002-10.743-8.707-19.452-19.45-19.452z" fill="#9ef"/><path d="m267.51 73.222h-38.02c-5.241 0-9.49-4.249-9.49-9.49v-10.248c0-5.233 4.242-9.475 9.475-9.475h38.051c5.233 0 9.475 4.242 9.475 9.475v10.248c-.001 5.241-4.25 9.49-9.491 9.49z" fill="#ffe645"/><path d="m212.5 151.342h36v77.333h-36z" fill="#fff6db"/></g><g><path d="m387.048 103.918v-30.696h-33.097v30.696c-10.743 0-19.452 8.709-19.452 19.452v139.88c0 8.437 6.84 15.276 15.276 15.276h41.447c8.437 0 15.276-6.84 15.276-15.276v-139.88c.002-10.743-8.707-19.452-19.45-19.452z" fill="#9ef"/><g fill="#82e2f5"><path d="m387.048 103.918v-30.696h-33.097v30.696c-.49 0-.971.038-1.452.073 10.063.745 18 9.125 18 19.378v139.881c0 8.437-6.84 15.276-15.276 15.276h36c8.437 0 15.276-6.84 15.276-15.276v-139.88c.001-10.743-8.708-19.452-19.451-19.452z"/><path d="m265.471 103.918v-30.696h-33.097v30.696c-.49 0-.971.038-1.452.073 10.063.745 18 9.125 18 19.378v139.881c0 8.437-6.84 15.276-15.276 15.276h36c8.437 0 15.276-6.84 15.276-15.276v-139.88c.001-10.743-8.708-19.452-19.451-19.452z"/><path d="m143.894 103.918v-30.696h-33.097v30.696c-.49 0-.971.038-1.452.073 10.063.745 18 9.125 18 19.378v139.881c0 8.437-6.84 15.276-15.276 15.276h36c8.437 0 15.276-6.84 15.276-15.276v-139.88c.001-10.743-8.708-19.452-19.451-19.452z"/></g><path d="m389.51 73.222h-38.02c-5.241 0-9.49-4.249-9.49-9.49v-10.248c0-5.233 4.242-9.475 9.475-9.475h38.051c5.233 0 9.475 4.242 9.475 9.475v10.248c-.001 5.241-4.25 9.49-9.491 9.49z" fill="#ffe645"/><path d="m334.5 151.342h36v77.333h-36z" fill="#fff6db"/></g></g></g></svg>